# WaveFront *.obj file (generated by Autodesk ATF)

mtllib MapBoarderLine.mtl

g Solid1

v -70.000000 0.000000 -70.000000
v -70.000000 0.000000 70.000000
v -70.000000 20.000000 -70.000000
v -70.000000 20.000000 70.000000
v -50.000000 0.000000 -50.000000
v -50.000000 0.000000 50.000000
v -50.000000 20.000000 -50.000000
v -50.000000 20.000000 50.000000
v 50.000000 0.000000 -50.000000
v 50.000000 0.000000 50.000000
v 50.000000 20.000000 -50.000000
v 50.000000 20.000000 50.000000
v 70.000000 0.000000 -70.000000
v 70.000000 0.000000 70.000000
v 70.000000 20.000000 -70.000000
v 70.000000 20.000000 70.000000
vt -10.000000 0.000000 0.000000
vt -0.000000 0.000000 0.000000
vt -0.000000 2.000000 0.000000
vt -10.000000 2.000000 0.000000
vt -10.000000 0.000000 0.000000
vt -0.000000 0.000000 0.000000
vt -0.000000 2.000000 0.000000
vt -10.000000 2.000000 0.000000
vt -10.000000 0.000000 0.000000
vt -0.000000 0.000000 0.000000
vt -0.000000 2.000000 0.000000
vt -10.000000 2.000000 0.000000
vt -10.000000 0.000000 0.000000
vt -0.000000 0.000000 0.000000
vt -0.000000 2.000000 0.000000
vt -10.000000 2.000000 0.000000
vt 0.000000 0.000000 0.000000
vt 14.000000 0.000000 0.000000
vt 14.000000 2.000000 0.000000
vt 0.000000 2.000000 0.000000
vt 0.000000 0.000000 0.000000
vt 14.000000 0.000000 0.000000
vt 14.000000 2.000000 0.000000
vt 0.000000 2.000000 0.000000
vt 0.000000 0.000000 0.000000
vt 14.000000 0.000000 0.000000
vt 14.000000 2.000000 0.000000
vt 0.000000 2.000000 0.000000
vt 0.000000 0.000000 0.000000
vt 14.000000 0.000000 0.000000
vt 14.000000 2.000000 0.000000
vt 0.000000 2.000000 0.000000
vt -5.000000 5.000000 0.000000
vt 5.000000 5.000000 0.000000
vt 5.000000 -5.000000 0.000000
vt -5.000000 -5.000000 0.000000
vt 7.000000 -7.000000 0.000000
vt 7.000000 7.000000 0.000000
vt -7.000000 7.000000 0.000000
vt -7.000000 -7.000000 0.000000
vt -5.000000 5.000000 0.000000
vt 5.000000 5.000000 0.000000
vt 5.000000 -5.000000 0.000000
vt -5.000000 -5.000000 0.000000
vt -7.000000 7.000000 0.000000
vt -7.000000 -7.000000 0.000000
vt 7.000000 -7.000000 0.000000
vt 7.000000 7.000000 0.000000
vn -0.100000 0.000000 0.000000
vn -0.100000 0.000000 0.000000
vn -0.100000 0.000000 0.000000
vn -0.100000 0.000000 0.000000
vn 0.000000 0.000000 -0.100000
vn 0.000000 0.000000 -0.100000
vn 0.000000 0.000000 -0.100000
vn 0.000000 0.000000 -0.100000
vn 0.100000 0.000000 0.000000
vn 0.100000 0.000000 0.000000
vn 0.100000 0.000000 0.000000
vn 0.100000 0.000000 0.000000
vn 0.000000 0.000000 0.100000
vn 0.000000 0.000000 0.100000
vn 0.000000 0.000000 0.100000
vn 0.000000 0.000000 0.100000
vn 0.100000 0.000000 0.000000
vn 0.100000 0.000000 0.000000
vn 0.100000 0.000000 0.000000
vn 0.100000 0.000000 0.000000
vn 0.000000 0.000000 0.100000
vn 0.000000 0.000000 0.100000
vn 0.000000 0.000000 0.100000
vn 0.000000 0.000000 0.100000
vn -0.100000 0.000000 0.000000
vn -0.100000 0.000000 0.000000
vn -0.100000 0.000000 0.000000
vn -0.100000 0.000000 0.000000
vn 0.000000 0.000000 -0.100000
vn 0.000000 0.000000 -0.100000
vn 0.000000 0.000000 -0.100000
vn 0.000000 0.000000 -0.100000
vn 0.000000 -0.100000 0.000000
vn 0.000000 -0.100000 0.000000
vn 0.000000 -0.100000 0.000000
vn 0.000000 -0.100000 0.000000
vn 0.000000 -0.100000 0.000000
vn 0.000000 -0.100000 0.000000
vn 0.000000 -0.100000 0.000000
vn 0.000000 -0.100000 0.000000
vn 0.000000 0.100000 0.000000
vn 0.000000 0.100000 0.000000
vn 0.000000 0.100000 0.000000
vn 0.000000 0.100000 0.000000
vn 0.000000 0.100000 0.000000
vn 0.000000 0.100000 0.000000
vn 0.000000 0.100000 0.000000
vn 0.000000 0.100000 0.000000
usemtl 191,191,191
f 9/1/1 10/2/2 11/4/4
f 11/4/4 10/2/2 12/3/3
f 10/5/5 6/6/6 12/8/8
f 12/8/8 6/6/6 8/7/7
f 6/9/9 5/10/10 8/12/12
f 8/12/12 5/10/10 7/11/11
f 5/13/13 9/14/14 7/16/16
f 7/16/16 9/14/14 11/15/15
f 14/17/17 13/18/18 16/20/20
f 16/20/20 13/18/18 15/19/19
f 2/21/21 14/22/22 4/24/24
f 4/24/24 14/22/22 16/23/23
f 1/25/25 2/26/26 3/28/28
f 3/28/28 2/26/26 4/27/27
f 13/29/29 1/30/30 15/32/32
f 15/32/32 1/30/30 3/31/31
f 9/34/34 14/39/39 10/33/33
f 10/33/33 14/39/39 2/40/40
f 10/33/33 2/40/40 6/36/36
f 6/36/36 2/40/40 1/37/37
f 6/36/36 1/37/37 5/35/35
f 5/35/35 1/37/37 9/34/34
f 9/34/34 1/37/37 13/38/38
f 9/34/34 13/38/38 14/39/39
f 12/42/42 15/45/45 11/41/41
f 11/41/41 15/45/45 3/46/46
f 11/41/41 3/46/46 7/44/44
f 7/44/44 3/46/46 4/47/47
f 7/44/44 4/47/47 8/43/43
f 8/43/43 4/47/47 12/42/42
f 12/42/42 4/47/47 16/48/48
f 12/42/42 16/48/48 15/45/45

# 16 vertices
# 48 texture params
# 48 normals
# 32 facets

# 1 groups
